HIERARCHY
ROOT root     
{
	OFFSET 0.0000 0.0000 0.0000
	CHANNELS 6 Xposition Yposition Zposition Zrotation Yrotation Xrotation
	JOINT pelvis   
	{
		OFFSET 0.0000 0.0000 0.0000
		CHANNELS 3 Zrotation Yrotation Xrotation
		JOINT thorax   
		{
			OFFSET 0.0000 23.0750 -5.0000
			CHANNELS 3 Zrotation Yrotation Xrotation
			JOINT rclavicle
			{
				OFFSET 0.0000 28.0009 0.0000
				CHANNELS 3 Zrotation Yrotation Xrotation
				JOINT rhumerus 
				{
					OFFSET -18.5725 5.5939 0.0000
					CHANNELS 3 Zrotation Yrotation Xrotation
					JOINT rradius  
					{
						OFFSET -24.8459 0.0000 0.0000
						CHANNELS 3 Zrotation Yrotation Xrotation
						JOINT rhand    
						{
							OFFSET -24.5477 0.0000 0.0000
							CHANNELS 3 Zrotation Yrotation Xrotation
							End Site
							{
								OFFSET -8.1826 0.0000 0.0000
							}
						}
					}
				}
			}
			JOINT lclavicle
			{
				OFFSET 0.0000 28.0009 0.0000
				CHANNELS 3 Zrotation Yrotation Xrotation
				JOINT lhumerus 
				{
					OFFSET 18.5725 5.5939 0.0000
					CHANNELS 3 Zrotation Yrotation Xrotation
					JOINT lradius  
					{
						OFFSET 24.8459 0.0000 0.0000
						CHANNELS 3 Zrotation Yrotation Xrotation
						JOINT lhand    
						{
							OFFSET 24.5477 0.0000 0.0000
							CHANNELS 3 Zrotation Yrotation Xrotation
							End Site
							{
								OFFSET 8.1826 0.0000 0.0000
							}
						}
					}
				}
			}
			JOINT head     
			{
				OFFSET 0.0000 35.2030 0.0000
				CHANNELS 3 Zrotation Yrotation Xrotation
				End Site
				{
					OFFSET 0.0000 11.7343 0.0000
				}
			}
		}
		JOINT rfemur   
		{
			OFFSET -8.2817 0.0000 0.0000
			CHANNELS 3 Zrotation Yrotation Xrotation
			JOINT rtibia   
			{
				OFFSET 0.0000 -43.3627 0.0000
				CHANNELS 3 Zrotation Yrotation Xrotation
				JOINT rfoot    
				{
					OFFSET 0.0000 -38.2947 0.0000
					CHANNELS 3 Zrotation Yrotation Xrotation
					JOINT rtoes    
					{
						OFFSET 0.0000 0.0000 16.6054
						CHANNELS 3 Zrotation Yrotation Xrotation
						End Site
						{
							OFFSET 0.0000 0.0000 5.5351
						}
					}
				}
			}
		}
		JOINT lfemur   
		{
			OFFSET 8.2817 0.0000 0.0000
			CHANNELS 3 Zrotation Yrotation Xrotation
			JOINT ltibia   
			{
				OFFSET 0.0000 -43.3627 0.0000
				CHANNELS 3 Zrotation Yrotation Xrotation
				JOINT lfoot    
				{
					OFFSET 0.0000 -38.2947 0.0000
					CHANNELS 3 Zrotation Yrotation Xrotation
					JOINT ltoes    
					{
						OFFSET 0.0000 0.0000 16.6054
						CHANNELS 3 Zrotation Yrotation Xrotation
						End Site
						{
							OFFSET 0.0000 0.0000 5.5351
						}
					}
				}
			}
		}
	}
}
MOTION
Frames: 7
Frame Time: .0333333
4.1738 74.785 9.2599 -155.957 -85.5339 173.216 0 -0 0 -8.63001 6.58059 14.0789 19.5263 -7.74629 6.34591e-05 56.144 5.70383 7.2579 -0 75.147 -0 -0.50461 6.08025 -0.0268002 -21.3509 19.8599 -6.48813e-05 -60.8766 13.3242 -0.0740808 -8.51863e-07 -64.999 5.42681e-07 -1.77715 3.44255 -0.0533992 2.24396 0.643598 -19.2079 -2.22709 -14.879 -17.4626 -0 -0 77.2608 -8.80519e-06 -4.80858 19.1471 -1.58048 1.21513e-06 -52.154 -8.26841 7.5223 -53.0685 -0 -0 66.5768 3.62405e-05 15.3349 -17.3288 -4.66954 -6.42973e-06 -16.6805 
3.2072 74.866 9.2806 -155.561 -85.3607 172.785 0 -0 0 -8.49211 6.33195 14.1869 19.6145 -7.60265 4.12232e-05 56.8791 5.43657 7.01213 -8.72391e-07 73.0656 -1.17757e-06 -0.718597 6.22172 -0.0390997 -21.3935 19.4661 0.000110551 -61.0776 12.094 -0.409711 7.93115e-07 -65.636 -1.22983e-06 -1.28357 3.52389 -0.0395025 2.00828 0.907494 -19.0602 -1.92653 -14.9033 -19.0057 -0 -0 78.9882 1.09906e-05 -7.10028 16.9215 -2.07638 1.71736e-05 -48.5756 -8.13445 7.65062 -52.3306 -0 -0 66.7389 -7.48509e-05 15.5456 -17.7313 -4.84255 1.23283e-05 -16.9842 
2.2611 74.965 9.2926 -155.006 -85.166 172.2 0 -0 0 -8.31916 6.07607 14.306 19.7098 -7.47495 4.14191e-05 57.5601 5.15768 6.72308 -0 70.9759 -0 -0.930884 6.36395 -0.0517991 -21.3702 19.0762 -0.000168503 -61.2604 10.8881 -0.64361 -8.91366e-07 -66.3702 5.82972e-07 -0.828998 3.59706 -0.0259998 1.82856 1.14471 -18.9133 -1.57362 -14.8672 -20.6175 -0 -0 80.5856 -3.73728e-05 -9.00105 14.4976 -2.27081 -8.70896e-06 -44.8499 -8.01486 7.85698 -51.5997 -0 -0 66.8351 4.0025e-05 15.7042 -18.1352 -5.00173 -1.18488e-07 -17.3714 
1.3318 75.077 9.2968 -154.334 -84.9781 171.509 0 -0 0 -8.12088 5.80568 14.4285 19.8112 -7.35834 2.58392e-05 58.1854 4.85099 6.39722 -6.7057e-07 68.8957 -9.77611e-07 -1.14169 6.50706 -0.0649 -21.2805 18.6668 -2.38274e-05 -61.4141 9.74988 -0.797021 0 -67.2274 0 -0.428408 3.65812 -0.0137004 1.71441 1.3514 -18.7455 -1.18052 -14.7779 -22.282 -0 -0 82.0244 2.04166e-05 -10.4785 12.0124 -2.20437 2.58436e-05 -41.192 -7.9113 8.12958 -50.8668 -0 -0 66.8679 8.84723e-05 15.8191 -18.5536 -5.15164 9.07428e-06 -17.8632 
0.4147 75.201 9.294 -153.578 -84.809 170.74 0 -0 0 -7.90339 5.51205 14.5508 19.9182 -7.2571 -4.0569e-05 58.7503 4.51192 6.04416 -8.45091e-07 66.8304 -1.28087e-06 -1.34537 6.65317 -0.0781983 -21.1274 18.2428 -5.30839e-05 -61.5243 8.6862 -0.868277 6.44677e-07 -68.2052 -9.52079e-07 -0.0920994 3.70609 -0.00299995 1.67048 1.52407 -18.5439 -0.758045 -14.6439 -23.9783 -0 -0 83.2842 -1.97121e-05 -11.5258 9.58785 -1.94523 2.0948e-05 -37.705 -7.82199 8.45136 -50.1276 -0 -0 66.8347 -1.04874e-05 15.8959 -18.9869 -5.29353 -3.02397e-05 -18.4662 
-0.4955 75.334 9.2856 -152.746 -84.678 169.902 0 -0 0 -7.67403 5.18435 14.6788 20.0357 -7.19132 5.51075e-05 59.2514 4.15732 5.68317 -5.37028e-07 64.7917 -8.46343e-07 -1.52703 6.80372 -0.0908022 -20.915 17.8555 1.80028e-05 -61.5688 7.64691 -0.818112 9.69912e-07 -69.2778 -1.40389e-06 0.178801 3.75342 0.00590009 1.69893 1.6622 -18.3023 -0.319014 -14.4814 -25.6886 -0 -0 84.3462 3.25105e-05 -12.1529 7.31859 -1.57138 4.11693e-06 -34.4612 -7.7445 8.80051 -49.372 -0 -0 66.7411 -3.86957e-05 15.9356 -19.4293 -5.42581 -4.42094e-06 -19.143 
-1.402 75.474 9.2723 -151.859 -84.569 169.002 0 -0 0 -7.4349 4.81558 14.8079 20.156 -7.1428 5.97657e-05 59.6882 3.75673 5.31173 -0 62.7991 -0 -1.69714 6.96178 -0.103197 -20.6455 17.4504 2.11277e-05 -61.5573 6.70333 -0.716523 1.04204e-06 -70.4727 -1.47521e-06 0.367901 3.78265 0.0121002 1.79673 1.76504 -18.0087 0.129727 -14.2996 -27.3968 -0 -0 85.2029 1.78852e-05 -12.4042 5.29587 -1.16299 -3.10188e-06 -31.7218 -7.67247 9.15657 -48.5966 -0 -0 66.5912 8.65308e-05 15.9414 -19.8565 -5.54164 -1.38725e-05 -19.9072 
